<?xml version="1.0" encoding="UTF-8"?>
<svg id="Layer_2" data-name="Layer 2" xmlns="http://www.w3.org/2000/svg" viewBox="0 0 200 200">
  <defs>
    <style>
      .cls-1 {
        fill: #1a1a1a;
        isolation: isolate;
      }

      .cls-2 {
        stroke: #231f20;
        stroke-miterlimit: 10;
      }

      .cls-2, .cls-3 {
        fill: #fff;
      }

      .cls-4 {
        stroke: #60a5fa;
      }

      .cls-4, .cls-5 {
        fill: none;
        stroke-linecap: round;
        stroke-linejoin: round;
        stroke-width: 12px;
      }

      .cls-5 {
        stroke: #4ade80;
      }
    </style>
  </defs>
  <g id="Layer_1-2" data-name="Layer 1">
    <g>
      <rect class="cls-3" width="200" height="200" rx="40" ry="40"/>
      <g>
        <g>
          <path class="cls-5" d="M143.55,37.73l-43.55,43.55-43.55-43.55"/>
          <path class="cls-4" d="M56.45,124.84l43.55-43.55,43.55,43.55"/>
          <circle class="cls-2" cx="56.45" cy="37.73" r="8.71"/>
          <circle class="cls-2" cx="143.55" cy="37.73" r="8.71"/>
          <circle class="cls-2" cx="56.45" cy="124.84" r="8.71"/>
          <circle class="cls-2" cx="143.55" cy="124.84" r="8.71"/>
          <circle class="cls-2" cx="100" cy="81.28" r="13.49"/>
        </g>
        <path class="cls-1" d="M23.54,164.13h-3.95v-17.92h6.72c2.9,0,5.48,2.35,5.48,5.74,0,3.64-2.58,5.77-5.48,5.77h-2.77v6.4ZM23.54,149.32v5.3h2.11c1.16,0,2.37-.95,2.37-2.66s-1.21-2.63-2.37-2.63h-2.11ZM31.79,164.13l7.09-9.06c.71-.9,1.82-2.08,1.82-3.29,0-1.29-.84-2.08-2.03-2.08-1.29,0-2.16.79-2.24,2.66h-3.72c.08-3.45,2.08-6.4,5.93-6.4,3.48,0,5.82,2.35,5.82,5.82,0,2.71-1.69,4.45-3.24,6.4l-1.9,2.37h5.43v3.58h-12.97ZM51.34,164.13h-3.95v-17.92h6.72c2.9,0,5.48,2.35,5.48,5.74,0,3.64-2.58,5.77-5.48,5.77h-2.77v6.4ZM51.34,149.32v5.3h2.11c1.16,0,2.37-.95,2.37-2.66s-1.21-2.63-2.37-2.63h-2.11ZM72.11,156.93v7.19h-3.95v-17.92h10.38v3.58h-6.43v3.56h6.17v3.58h-6.17ZM83.54,146.21c1.26,0,2.32,1.03,2.32,2.32s-1.05,2.32-2.32,2.32-2.32-1.05-2.32-2.32,1.03-2.32,2.32-2.32ZM81.57,164.13v-11.62h3.95v11.62h-3.95ZM88.81,164.13v-19.76h3.95v19.76h-3.95ZM108.47,158.8h-9.01c0,1.34.95,2.77,2.5,2.77,1.4,0,2.27-.92,2.29-1.77h4.03c-.69,3.06-3.16,4.59-6.25,4.59-4.01,0-6.77-2.37-6.77-6.06s2.87-6.09,6.77-6.09c3.53,0,6.46,2.11,6.46,5.82,0,.24-.03.5-.03.74ZM104.7,156.93s-.18-2.16-2.58-2.16-2.61,2.16-2.61,2.16h5.19ZM121.15,159.23c0-3.48-10.36-1.24-10.36-7.85,0-3.69,3.43-5.43,6.69-5.43,3.69,0,7.01,1.63,7.14,5.72h-3.82c-.21-1.87-1.29-2.48-3.27-2.48-1.11,0-2.66.53-2.66,1.87,0,3.19,10.36.9,10.36,7.72,0,4.22-3.77,5.77-7.43,5.77-3.95,0-7.56-1.95-7.59-6.32h4.01c.11,2.13,1.79,3.11,3.74,3.11,1.24,0,3.19-.5,3.19-2.11ZM139.49,164.13h-3.95v-6.59c0-1.37-.53-2.11-1.77-2.11s-2.21,1.32-2.21,2.9v5.8h-3.95v-19.76h3.95v9.57c.79-1,2.03-1.69,3.56-1.69,3.11,0,4.37,2.13,4.37,5.3v6.59ZM155.3,164.13h-3.95v-1.4c-.79,1.19-2.5,1.66-3.98,1.66-3.29,0-5.77-2.85-5.77-6.06s2.48-6.09,5.77-6.09c1.48,0,2.95.42,3.98,1.69v-1.4h3.95v11.59ZM148.58,155.43c-1.58,0-2.77,1.37-2.77,2.9s1.19,2.9,2.77,2.9,2.77-1.37,2.77-2.9-1.19-2.9-2.77-2.9ZM162.41,158.33v5.8h-3.95v-11.62h3.95v1.42c.61-.87,1.61-1.69,3.06-1.69.34,0,.87.11,1.19.26v3.58h-.05c-.4-.47-.97-.66-1.58-.66-1.48,0-2.61,1.5-2.61,2.9ZM181.04,158.8h-9.01c0,1.34.95,2.77,2.5,2.77,1.4,0,2.27-.92,2.29-1.77h4.03c-.69,3.06-3.16,4.59-6.25,4.59-4.01,0-6.77-2.37-6.77-6.06s2.87-6.09,6.77-6.09c3.53,0,6.46,2.11,6.46,5.82,0,.24-.03.5-.03.74ZM177.27,156.93s-.18-2.16-2.58-2.16-2.61,2.16-2.61,2.16h5.19Z"/>
      </g>
    </g>
  </g>
</svg>