<?xml version="1.0" encoding="UTF-8"?>
<svg id="Layer_2" data-name="Layer 2" xmlns="http://www.w3.org/2000/svg" viewBox="0 0 1026.11 111.33">
  <defs>
    <style>
      .cls-1 {
        stroke: #231f20;
        stroke-miterlimit: 10;
      }

      .cls-1, .cls-2 {
        fill: #fff;
      }

      .cls-2 {
        isolation: isolate;
      }

      .cls-3 {
        stroke: #60a5fa;
      }

      .cls-3, .cls-4 {
        fill: none;
        stroke-linecap: round;
        stroke-linejoin: round;
        stroke-width: 12px;
      }

      .cls-4 {
        stroke: #4ade80;
      }
    </style>
  </defs>
  <g id="Layer_1-2" data-name="Layer 1">
    <g>
      <g>
        <path class="cls-4" d="M100.59,10.17l-45.49,45.49L9.6,10.17"/>
        <path class="cls-3" d="M9.6,101.16l45.49-45.49,45.49,45.49"/>
        <circle class="cls-1" cx="9.6" cy="10.17" r="9.1"/>
        <circle class="cls-1" cx="100.59" cy="10.17" r="9.1"/>
        <circle class="cls-1" cx="9.6" cy="101.16" r="9.1"/>
        <circle class="cls-1" cx="100.59" cy="101.16" r="9.1"/>
        <circle class="cls-1" cx="55.09" cy="55.67" r="14.09"/>
      </g>
      <path class="cls-2" d="M157.24,109.01h-21.8V10.17h37.06c15.99,0,30.23,12.94,30.23,31.69,0,20.06-14.24,31.83-30.23,31.83h-15.26v35.32ZM157.24,27.32v29.21h11.63c6.39,0,13.08-5.23,13.08-14.68s-6.69-14.54-13.08-14.54h-11.63ZM202.73,109.01l39.1-50c3.92-4.94,10.03-11.48,10.03-18.17,0-7.12-4.65-11.48-11.19-11.48-7.12,0-11.92,4.36-12.35,14.68h-20.49c.44-19.04,11.48-35.32,32.7-35.32,19.19,0,32.12,12.94,32.12,32.12,0,14.97-9.3,24.56-17.88,35.32l-10.46,13.08h29.94v19.77h-71.51ZM310.58,109.01h-21.8V10.17h37.06c15.99,0,30.23,12.94,30.23,31.69,0,20.06-14.24,31.83-30.23,31.83h-15.26v35.32ZM310.58,27.32v29.21h11.63c6.4,0,13.08-5.23,13.08-14.68s-6.69-14.54-13.08-14.54h-11.63ZM425.11,69.33v39.68h-21.8V10.17h57.27v19.77h-35.46v19.62h34.01v19.77h-34.01ZM488.19,10.17c6.98,0,12.79,5.67,12.79,12.79s-5.81,12.79-12.79,12.79-12.79-5.81-12.79-12.79,5.67-12.79,12.79-12.79ZM477.29,109.01V44.91h21.8v64.1h-21.8ZM517.26,109.01V0h21.8v109.01h-21.8ZM625.68,79.65h-49.71c0,7.41,5.23,15.26,13.81,15.26,7.7,0,12.5-5.09,12.64-9.74h22.24c-3.78,16.86-17.44,25.29-34.45,25.29-22.09,0-37.35-13.08-37.35-33.43s15.84-33.57,37.35-33.57c19.48,0,35.61,11.63,35.61,32.12,0,1.31-.15,2.76-.15,4.07ZM604.9,69.33s-1.02-11.92-14.24-11.92-14.39,11.92-14.39,11.92h28.63ZM695.6,81.97c0-19.18-57.12-6.83-57.12-43.31,0-20.35,18.9-29.94,36.92-29.94,20.35,0,38.66,9.01,39.39,31.54h-21.07c-1.16-10.32-7.12-13.66-18.02-13.66-6.1,0-14.68,2.91-14.68,10.32,0,17.59,57.12,4.94,57.12,42.59,0,23.26-20.78,31.83-40.99,31.83-21.8,0-41.71-10.76-41.86-34.88h22.09c.58,11.77,9.88,17.15,20.64,17.15,6.83,0,17.59-2.76,17.59-11.63ZM796.76,109.01h-21.8v-36.34c0-7.56-2.91-11.63-9.74-11.63s-12.21,7.27-12.21,15.99v31.98h-21.8V0h21.8v52.76c4.36-5.52,11.19-9.3,19.62-9.3,17.15,0,24.13,11.77,24.13,29.21v36.34ZM883.96,109.01h-21.8v-7.7c-4.36,6.54-13.81,9.16-21.95,9.16-18.17,0-31.83-15.7-31.83-33.43s13.66-33.57,31.83-33.57c8.14,0,16.28,2.33,21.95,9.3v-7.7h21.8v63.95ZM846.9,61.04c-8.72,0-15.26,7.56-15.26,15.99s6.54,15.99,15.26,15.99,15.26-7.56,15.26-15.99-6.54-15.99-15.26-15.99ZM923.21,77.03v31.98h-21.8V44.91h21.8v7.85c3.34-4.8,8.87-9.3,16.86-9.3,1.89,0,4.8.58,6.54,1.45v19.77h-.29c-2.18-2.62-5.38-3.63-8.72-3.63-8.14,0-14.39,8.29-14.39,15.99ZM1025.97,79.65h-49.71c0,7.41,5.23,15.26,13.81,15.26,7.7,0,12.5-5.09,12.65-9.74h22.24c-3.78,16.86-17.44,25.29-34.45,25.29-22.09,0-37.35-13.08-37.35-33.43s15.84-33.57,37.35-33.57c19.48,0,35.61,11.63,35.61,32.12,0,1.31-.14,2.76-.14,4.07ZM1005.18,69.33s-1.02-11.92-14.24-11.92-14.39,11.92-14.39,11.92h28.63Z"/>
    </g>
  </g>
</svg>